<svg viewBox="0 0 1280 720" xmlns="http://www.w3.org/2000/svg">
  <defs>
    <linearGradient id="cielo" x1="0" y1="0" x2="0" y2="1">
      <stop offset="0" stop-color="#BCD6E4"/>
      <stop offset="0.55" stop-color="#9FC4D8"/>
      <stop offset="0.56" stop-color="#7FAEC4"/>
      <stop offset="1" stop-color="#5E93AC"/>
    </linearGradient>
  </defs>
  <rect width="1280" height="720" fill="url(#cielo)"/>
  <!-- sol suave -->
  <circle cx="1130" cy="110" r="55" fill="#F2DFA8" opacity="0.8"/>
  <!-- nubes -->
  <g fill="#EAF2F2" opacity="0.75">
    <ellipse cx="220" cy="100" rx="90" ry="26"/>
    <ellipse cx="290" cy="86" rx="60" ry="20"/>
    <ellipse cx="700" cy="70" rx="100" ry="24"/>
  </g>
  <!-- olas del cenote -->
  <g stroke="#DCEBEF" stroke-width="5" fill="none" opacity="0.5" stroke-linecap="round">
    <path d="M60 480 Q100 470 140 480 Q180 490 220 480"/>
    <path d="M1020 520 Q1060 510 1100 520 Q1140 530 1180 520"/>
    <path d="M480 640 Q520 630 560 640 Q600 650 640 640"/>
    <path d="M120 660 Q160 650 200 660"/>
  </g>
  <!-- plantas acuaticas laterales -->
  <g fill="#4E8A78" opacity="0.6">
    <path d="M40 720 Q34 600 52 560 Q60 610 58 720 Z"/>
    <path d="M70 720 Q78 620 64 580 Q56 640 56 720 Z"/>
    <path d="M1230 720 Q1224 610 1242 570 Q1250 620 1248 720 Z"/>
    <path d="M1204 720 Q1212 640 1198 600 Q1190 660 1190 720 Z"/>
  </g>
  <!-- burbujas -->
  <g fill="#EAF4F6" opacity="0.5">
    <circle cx="110" cy="560" r="7"/>
    <circle cx="130" cy="530" r="4"/>
    <circle cx="1160" cy="600" r="7"/>
    <circle cx="1180" cy="568" r="4"/>
  </g>
</svg>
